<svg width="100" height="100" viewBox="0 0 100 100" fill="none" xmlns="http://www.w3.org/2000/svg">
<g clip-path="url(#clip0_95_2)">
<path d="M34.5 80.75H40.75V87H34.5V80.75ZM40.75 80.75H47V87H40.75V80.75ZM47 80.75H53.25V87H47V80.75ZM53.25 80.75H59.5V87H53.25V80.75ZM59.5 80.75H65.75V87H59.5V80.75ZM47 74.5H53.25V80.75H47V74.5ZM47 68.25H53.25V74.5H47V68.25ZM47 62H53.25V68.25H47V62ZM47 55.75H53.25V62H47V55.75ZM47 49.5H53.25V55.75H47V49.5ZM47 43.25H53.25V49.5H47V43.25ZM47 37H53.25V43.25H47V37ZM53.25 30.75H59.5V37H53.25V30.75ZM53.25 24.5H59.5V30.75H53.25V24.5ZM40.75 24.5H47V30.75H40.75V24.5ZM40.75 30.75H47V37H40.75V30.75ZM47 30.75H53.25V37H47V30.75ZM40.75 18.25H47V24.5H40.75V18.25ZM47 18.25H53.25V24.5H47V18.25ZM53.25 18.25H59.5V24.5H53.25V18.25ZM34.5 24.5H40.75V30.75H34.5V24.5ZM59.5 24.5H65.75V30.75H59.5V24.5ZM47 12H53.25V18.25H47V12ZM34.5 12H40.75V18.25H34.5V12ZM59.5 12H65.75V18.25H59.5V12ZM40.75 62H47V68.25H40.75V62ZM53.25 62H59.5V68.25H53.25V62ZM65.75 43.25H72V49.5H65.75V43.25ZM72 43.25H78.25V49.5H72V43.25ZM34.5 74.5H40.75V80.75H34.5V74.5ZM40.75 74.5H47V80.75H40.75V74.5ZM53.25 74.5H59.5V80.75H53.25V74.5ZM59.5 74.5H65.75V80.75H59.5V74.5ZM40.75 55.75H47V62H40.75V55.75ZM53.25 55.75H59.5V62H53.25V55.75ZM34.5 49.5H40.75V55.75H34.5V49.5ZM28.25 49.5H34.5V55.75H28.25V49.5ZM34.5 43.25H40.75V49.5H34.5V43.25ZM28.25 43.25H34.5V49.5H28.25V43.25ZM28.25 37H34.5V43.25H28.25V37ZM22 37H28.25V43.25H22V37ZM22 43.25H28.25V49.5H22V43.25ZM59.5 49.5H65.75V55.75H59.5V49.5ZM65.75 49.5H72V55.75H65.75V49.5ZM59.5 43.25H65.75V49.5H59.5V43.25ZM65.75 37H72V43.25H65.75V37ZM72 37H78.25V43.25H72V37Z" fill="#E67E22"/>
</g>
<defs>
<clipPath id="clip0_95_2">
<rect width="100" height="100" fill="white"/>
</clipPath>
</defs>
</svg>
